<svg xmlns="http://www.w3.org/2000/svg" viewBox="0 0 24 24">
  <g id="União_1" data-name="União 1" transform="translate(2992 207)" fill="none">
    <path d="M-2976-183a2,2,0,0,1-2-2v-6a2,2,0,0,1,2-2h6a2,2,0,0,1,2,2v6a2,2,0,0,1-2,2Zm-14,0a2,2,0,0,1-2-2v-6a2,2,0,0,1,2-2h6a2,2,0,0,1,2,2v6a2,2,0,0,1-2,2Zm14-14a2,2,0,0,1-2-2v-6a2,2,0,0,1,2-2h6a2,2,0,0,1,2,2v6a2,2,0,0,1-2,2Zm-14,0a2,2,0,0,1-2-2v-6a2,2,0,0,1,2-2h6a2,2,0,0,1,2,2v6a2,2,0,0,1-2,2Z" stroke="none"/>
    <path d="M -2970 -184.4997100830078 C -2969.724365234375 -184.4997100830078 -2969.500244140625 -184.7243194580078 -2969.500244140625 -185.0004119873047 L -2969.500244140625 -190.9998016357422 C -2969.500244140625 -191.275390625 -2969.724365234375 -191.4996032714844 -2970 -191.4996032714844 L -2976.00048828125 -191.4996032714844 C -2976.276123046875 -191.4996032714844 -2976.500244140625 -191.275390625 -2976.500244140625 -190.9998016357422 L -2976.500244140625 -185.0004119873047 C -2976.500244140625 -184.7243194580078 -2976.276123046875 -184.4997100830078 -2976.00048828125 -184.4997100830078 L -2970 -184.4997100830078 M -2983.99951171875 -184.4997100830078 C -2983.723876953125 -184.4997100830078 -2983.499755859375 -184.7243194580078 -2983.499755859375 -185.0004119873047 L -2983.499755859375 -190.9998016357422 C -2983.499755859375 -191.275390625 -2983.723876953125 -191.4996032714844 -2983.99951171875 -191.4996032714844 L -2989.999755859375 -191.4996032714844 C -2990.275390625 -191.4996032714844 -2990.499755859375 -191.275390625 -2990.499755859375 -190.9998016357422 L -2990.499755859375 -185.0004119873047 C -2990.499755859375 -184.7243194580078 -2990.275390625 -184.4997100830078 -2989.999755859375 -184.4997100830078 L -2983.99951171875 -184.4997100830078 M -2970 -198.5001068115234 C -2969.724365234375 -198.5001068115234 -2969.500244140625 -198.7243194580078 -2969.500244140625 -198.9999084472656 L -2969.500244140625 -205.0001983642578 C -2969.500244140625 -205.2757873535156 -2969.724365234375 -205.5 -2970 -205.5 L -2976.00048828125 -205.5 C -2976.276123046875 -205.5 -2976.500244140625 -205.2757873535156 -2976.500244140625 -205.0001983642578 L -2976.500244140625 -198.9999084472656 C -2976.500244140625 -198.7243194580078 -2976.276123046875 -198.5001068115234 -2976.00048828125 -198.5001068115234 L -2970 -198.5001068115234 M -2983.99951171875 -198.5001068115234 C -2983.723876953125 -198.5001068115234 -2983.499755859375 -198.7243194580078 -2983.499755859375 -198.9999084472656 L -2983.499755859375 -205.0001983642578 C -2983.499755859375 -205.2757873535156 -2983.723876953125 -205.5 -2983.99951171875 -205.5 L -2989.999755859375 -205.5 C -2990.275390625 -205.5 -2990.499755859375 -205.2757873535156 -2990.499755859375 -205.0001983642578 L -2990.499755859375 -198.9999084472656 C -2990.499755859375 -198.7243194580078 -2990.275390625 -198.5001068115234 -2989.999755859375 -198.5001068115234 L -2983.99951171875 -198.5001068115234 M -2970 -182.9997100830078 L -2976.00048828125 -182.9997100830078 C -2977.104736328125 -182.9997100830078 -2978.000244140625 -183.8952026367188 -2978.000244140625 -185.0004119873047 L -2978.000244140625 -190.9998016357422 C -2978.000244140625 -192.1050109863281 -2977.104736328125 -192.9996032714844 -2976.00048828125 -192.9996032714844 L -2970 -192.9996032714844 C -2968.895751953125 -192.9996032714844 -2968.000244140625 -192.1050109863281 -2968.000244140625 -190.9998016357422 L -2968.000244140625 -185.0004119873047 C -2968.000244140625 -183.8952026367188 -2968.895751953125 -182.9997100830078 -2970 -182.9997100830078 Z M -2983.99951171875 -182.9997100830078 L -2989.999755859375 -182.9997100830078 C -2991.104248046875 -182.9997100830078 -2991.999755859375 -183.8952026367188 -2991.999755859375 -185.0004119873047 L -2991.999755859375 -190.9998016357422 C -2991.999755859375 -192.1050109863281 -2991.104248046875 -192.9996032714844 -2989.999755859375 -192.9996032714844 L -2983.99951171875 -192.9996032714844 C -2982.895263671875 -192.9996032714844 -2981.999755859375 -192.1050109863281 -2981.999755859375 -190.9998016357422 L -2981.999755859375 -185.0004119873047 C -2981.999755859375 -183.8952026367188 -2982.895263671875 -182.9997100830078 -2983.99951171875 -182.9997100830078 Z M -2970 -197.0001068115234 L -2976.00048828125 -197.0001068115234 C -2977.104736328125 -197.0001068115234 -2978.000244140625 -197.8955993652344 -2978.000244140625 -198.9999084472656 L -2978.000244140625 -205.0001983642578 C -2978.000244140625 -206.1045074462891 -2977.104736328125 -207 -2976.00048828125 -207 L -2970 -207 C -2968.895751953125 -207 -2968.000244140625 -206.1045074462891 -2968.000244140625 -205.0001983642578 L -2968.000244140625 -198.9999084472656 C -2968.000244140625 -197.8955993652344 -2968.895751953125 -197.0001068115234 -2970 -197.0001068115234 Z M -2983.99951171875 -197.0001068115234 L -2989.999755859375 -197.0001068115234 C -2991.104248046875 -197.0001068115234 -2991.999755859375 -197.8955993652344 -2991.999755859375 -198.9999084472656 L -2991.999755859375 -205.0001983642578 C -2991.999755859375 -206.1045074462891 -2991.104248046875 -207 -2989.999755859375 -207 L -2983.99951171875 -207 C -2982.895263671875 -207 -2981.999755859375 -206.1045074462891 -2981.999755859375 -205.0001983642578 L -2981.999755859375 -198.9999084472656 C -2981.999755859375 -197.8955993652344 -2982.895263671875 -197.0001068115234 -2983.99951171875 -197.0001068115234 Z" stroke="none" fill="#234d97"/>
  </g>
</svg>
