<svg xmlns="http://www.w3.org/2000/svg" viewBox="0 0 28 25">
  <g id="União_2" data-name="União 2" transform="translate(1440 156.5)" fill="none">
    <path d="M-1430-131.5a2,2,0,0,1-2-2v-1a2,2,0,0,1,2-2h16a2,2,0,0,1,2,2v1a2,2,0,0,1-2,2Zm-8,0a2,2,0,0,1-2-2v-1a2,2,0,0,1,2-2h2a2,2,0,0,1,2,2v1a2,2,0,0,1-2,2Zm8-10a2,2,0,0,1-2-2v-1a2,2,0,0,1,2-2h16a2,2,0,0,1,2,2v1a2,2,0,0,1-2,2Zm-8,0a2,2,0,0,1-2-2v-1a2,2,0,0,1,2-2h2a2,2,0,0,1,2,2v1a2,2,0,0,1-2,2Zm8-10a2,2,0,0,1-2-2v-1a2,2,0,0,1,2-2h16a2,2,0,0,1,2,2v1a2,2,0,0,1-2,2Zm-8,0a2,2,0,0,1-2-2v-1a2,2,0,0,1,2-2h2a2,2,0,0,1,2,2v1a2,2,0,0,1-2,2Z" stroke="none"/>
    <path d="M -1413.999877929688 -132.9999084472656 C -1413.724365234375 -132.9999084472656 -1413.500122070313 -133.22412109375 -1413.500122070313 -133.4997100830078 L -1413.500122070313 -134.4996032714844 C -1413.500122070313 -134.7756958007813 -1413.724365234375 -135.0003051757813 -1413.999877929688 -135.0003051757813 L -1430.000122070313 -135.0003051757813 C -1430.275634765625 -135.0003051757813 -1430.499877929688 -134.7756958007813 -1430.499877929688 -134.4996032714844 L -1430.499877929688 -133.4997100830078 C -1430.499877929688 -133.22412109375 -1430.275634765625 -132.9999084472656 -1430.000122070313 -132.9999084472656 L -1413.999877929688 -132.9999084472656 M -1436.00048828125 -132.9999084472656 C -1435.724365234375 -132.9999084472656 -1435.499755859375 -133.22412109375 -1435.499755859375 -133.4997100830078 L -1435.499755859375 -134.4996032714844 C -1435.499755859375 -134.7756958007813 -1435.724365234375 -135.0003051757813 -1436.00048828125 -135.0003051757813 L -1438.000244140625 -135.0003051757813 C -1438.275756835938 -135.0003051757813 -1438.5 -134.7756958007813 -1438.5 -134.4996032714844 L -1438.5 -133.4997100830078 C -1438.5 -133.22412109375 -1438.275756835938 -132.9999084472656 -1438.000244140625 -132.9999084472656 L -1436.00048828125 -132.9999084472656 M -1413.999877929688 -142.9998016357422 C -1413.724365234375 -142.9998016357422 -1413.500122070313 -143.2240142822266 -1413.500122070313 -143.4996032714844 L -1413.500122070313 -144.5003967285156 C -1413.500122070313 -144.7759857177734 -1413.724365234375 -145.0001983642578 -1413.999877929688 -145.0001983642578 L -1430.000122070313 -145.0001983642578 C -1430.275634765625 -145.0001983642578 -1430.499877929688 -144.7759857177734 -1430.499877929688 -144.5003967285156 L -1430.499877929688 -143.4996032714844 C -1430.499877929688 -143.2240142822266 -1430.275634765625 -142.9998016357422 -1430.000122070313 -142.9998016357422 L -1413.999877929688 -142.9998016357422 M -1436.00048828125 -142.9998016357422 C -1435.724365234375 -142.9998016357422 -1435.499755859375 -143.2240142822266 -1435.499755859375 -143.4996032714844 L -1435.499755859375 -144.5003967285156 C -1435.499755859375 -144.7759857177734 -1435.724365234375 -145.0001983642578 -1436.00048828125 -145.0001983642578 L -1438.000244140625 -145.0001983642578 C -1438.275756835938 -145.0001983642578 -1438.5 -144.7759857177734 -1438.5 -144.5003967285156 L -1438.5 -143.4996032714844 C -1438.5 -143.2240142822266 -1438.275756835938 -142.9998016357422 -1438.000244140625 -142.9998016357422 L -1436.00048828125 -142.9998016357422 M -1413.999877929688 -152.9997100830078 C -1413.724365234375 -152.9997100830078 -1413.500122070313 -153.2243194580078 -1413.500122070313 -153.5003967285156 L -1413.500122070313 -154.5003051757813 C -1413.500122070313 -154.7758941650391 -1413.724365234375 -155.0001068115234 -1413.999877929688 -155.0001068115234 L -1430.000122070313 -155.0001068115234 C -1430.275634765625 -155.0001068115234 -1430.499877929688 -154.7758941650391 -1430.499877929688 -154.5003051757813 L -1430.499877929688 -153.5003967285156 C -1430.499877929688 -153.2243194580078 -1430.275634765625 -152.9997100830078 -1430.000122070313 -152.9997100830078 L -1413.999877929688 -152.9997100830078 M -1436.00048828125 -152.9997100830078 C -1435.724365234375 -152.9997100830078 -1435.499755859375 -153.2243194580078 -1435.499755859375 -153.5003967285156 L -1435.499755859375 -154.5003051757813 C -1435.499755859375 -154.7758941650391 -1435.724365234375 -155.0001068115234 -1436.00048828125 -155.0001068115234 L -1438.000244140625 -155.0001068115234 C -1438.275756835938 -155.0001068115234 -1438.5 -154.7758941650391 -1438.5 -154.5003051757813 L -1438.5 -153.5003967285156 C -1438.5 -153.2243194580078 -1438.275756835938 -152.9997100830078 -1438.000244140625 -152.9997100830078 L -1436.00048828125 -152.9997100830078 M -1413.999877929688 -131.4999084472656 L -1430.000122070313 -131.4999084472656 C -1431.1044921875 -131.4999084472656 -1431.999877929688 -132.3954010009766 -1431.999877929688 -133.4997100830078 L -1431.999877929688 -134.4996032714844 C -1431.999877929688 -135.6047973632813 -1431.1044921875 -136.5003051757813 -1430.000122070313 -136.5003051757813 L -1413.999877929688 -136.5003051757813 C -1412.895629882813 -136.5003051757813 -1412.000122070313 -135.6047973632813 -1412.000122070313 -134.4996032714844 L -1412.000122070313 -133.4997100830078 C -1412.000122070313 -132.3954010009766 -1412.895629882813 -131.4999084472656 -1413.999877929688 -131.4999084472656 Z M -1436.00048828125 -131.4999084472656 L -1438.000244140625 -131.4999084472656 C -1439.1044921875 -131.4999084472656 -1440 -132.3954010009766 -1440 -133.4997100830078 L -1440 -134.4996032714844 C -1440 -135.6047973632813 -1439.1044921875 -136.5003051757813 -1438.000244140625 -136.5003051757813 L -1436.00048828125 -136.5003051757813 C -1434.895263671875 -136.5003051757813 -1433.999755859375 -135.6047973632813 -1433.999755859375 -134.4996032714844 L -1433.999755859375 -133.4997100830078 C -1433.999755859375 -132.3954010009766 -1434.895263671875 -131.4999084472656 -1436.00048828125 -131.4999084472656 Z M -1413.999877929688 -141.4998016357422 L -1430.000122070313 -141.4998016357422 C -1431.1044921875 -141.4998016357422 -1431.999877929688 -142.3953094482422 -1431.999877929688 -143.4996032714844 L -1431.999877929688 -144.5003967285156 C -1431.999877929688 -145.6047058105469 -1431.1044921875 -146.5001983642578 -1430.000122070313 -146.5001983642578 L -1413.999877929688 -146.5001983642578 C -1412.895629882813 -146.5001983642578 -1412.000122070313 -145.6047058105469 -1412.000122070313 -144.5003967285156 L -1412.000122070313 -143.4996032714844 C -1412.000122070313 -142.3953094482422 -1412.895629882813 -141.4998016357422 -1413.999877929688 -141.4998016357422 Z M -1436.00048828125 -141.4998016357422 L -1438.000244140625 -141.4998016357422 C -1439.1044921875 -141.4998016357422 -1440 -142.3953094482422 -1440 -143.4996032714844 L -1440 -144.5003967285156 C -1440 -145.6047058105469 -1439.1044921875 -146.5001983642578 -1438.000244140625 -146.5001983642578 L -1436.00048828125 -146.5001983642578 C -1434.895263671875 -146.5001983642578 -1433.999755859375 -145.6047058105469 -1433.999755859375 -144.5003967285156 L -1433.999755859375 -143.4996032714844 C -1433.999755859375 -142.3953094482422 -1434.895263671875 -141.4998016357422 -1436.00048828125 -141.4998016357422 Z M -1413.999877929688 -151.4997100830078 L -1430.000122070313 -151.4997100830078 C -1431.1044921875 -151.4997100830078 -1431.999877929688 -152.3952026367188 -1431.999877929688 -153.5003967285156 L -1431.999877929688 -154.5003051757813 C -1431.999877929688 -155.6045989990234 -1431.1044921875 -156.5001068115234 -1430.000122070313 -156.5001068115234 L -1413.999877929688 -156.5001068115234 C -1412.895629882813 -156.5001068115234 -1412.000122070313 -155.6045989990234 -1412.000122070313 -154.5003051757813 L -1412.000122070313 -153.5003967285156 C -1412.000122070313 -152.3952026367188 -1412.895629882813 -151.4997100830078 -1413.999877929688 -151.4997100830078 Z M -1436.00048828125 -151.4997100830078 L -1438.000244140625 -151.4997100830078 C -1439.1044921875 -151.4997100830078 -1440 -152.3952026367188 -1440 -153.5003967285156 L -1440 -154.5003051757813 C -1440 -155.6045989990234 -1439.1044921875 -156.5001068115234 -1438.000244140625 -156.5001068115234 L -1436.00048828125 -156.5001068115234 C -1434.895263671875 -156.5001068115234 -1433.999755859375 -155.6045989990234 -1433.999755859375 -154.5003051757813 L -1433.999755859375 -153.5003967285156 C -1433.999755859375 -152.3952026367188 -1434.895263671875 -151.4997100830078 -1436.00048828125 -151.4997100830078 Z" stroke="none" fill="#234d97"/>
  </g>
</svg>
