<svg xmlns="http://www.w3.org/2000/svg" viewBox="0 0 28 25">
  <path id="União_2" data-name="União 2" d="M-1430-131.5a2,2,0,0,1-2-2v-1a2,2,0,0,1,2-2h16a2,2,0,0,1,2,2v1a2,2,0,0,1-2,2Zm-8,0a2,2,0,0,1-2-2v-1a2,2,0,0,1,2-2h2a2,2,0,0,1,2,2v1a2,2,0,0,1-2,2Zm8-10a2,2,0,0,1-2-2v-1a2,2,0,0,1,2-2h16a2,2,0,0,1,2,2v1a2,2,0,0,1-2,2Zm-8,0a2,2,0,0,1-2-2v-1a2,2,0,0,1,2-2h2a2,2,0,0,1,2,2v1a2,2,0,0,1-2,2Zm8-10a2,2,0,0,1-2-2v-1a2,2,0,0,1,2-2h16a2,2,0,0,1,2,2v1a2,2,0,0,1-2,2Zm-8,0a2,2,0,0,1-2-2v-1a2,2,0,0,1,2-2h2a2,2,0,0,1,2,2v1a2,2,0,0,1-2,2Z" transform="translate(1440 156.5)" fill="#234d97"/>
</svg>
